<?xml version="1.0" standalone="no"?>
<!DOCTYPE svg PUBLIC "-//W3C//DTD SVG 20010904//EN"
 "http://www.w3.org/TR/2001/REC-SVG-20010904/DTD/svg10.dtd">
<svg version="1.0" xmlns="http://www.w3.org/2000/svg"
 width="190.000000pt" height="190.000000pt" viewBox="0 0 190.000000 190.000000"
 preserveAspectRatio="xMidYMid meet">
<metadata>
Created by potrace 1.11, written by Peter Selinger 2001-2013
</metadata>
<g transform="translate(0.000000,190.000000) scale(0.100000,-0.100000)"
fill="#000000" stroke="none">
<path d="M842 1508 c-7 -7 -12 -17 -12 -23 0 -19 98 -237 114 -253 23 -23 66
-8 66 23 0 28 -84 221 -107 248 -19 20 -44 22 -61 5z"/>
<path d="M1003 1489 c-44 -16 -39 -51 10 -69 87 -30 147 -106 147 -185 0 -50
-33 -115 -74 -143 -32 -22 -32 -22 -72 -3 -44 21 -150 51 -183 51 -48 0 -67
114 -31 185 25 50 25 71 0 85 -29 15 -51 5 -76 -33 -38 -59 -53 -133 -42 -212
2 -15 -5 -20 -35 -26 -103 -17 -123 -69 -45 -117 115 -71 369 -95 478 -45 141
64 200 219 137 356 -39 86 -162 175 -214 156z"/>
<path d="M800 760 c0 -73 3 -90 15 -90 11 0 15 12 15 44 l0 45 43 -2 42 -2 3
-42 c2 -29 8 -43 18 -43 11 0 14 18 14 90 0 73 -3 90 -15 90 -10 0 -15 -10
-15 -33 0 -32 -1 -33 -42 -32 -41 0 -43 2 -46 33 -2 20 -9 32 -18 32 -11 0
-14 -18 -14 -90z"/>
<path d="M990 760 l0 -90 44 0 c25 0 48 6 55 14 18 22 21 54 6 66 -11 9 -12
17 -5 30 6 10 10 23 10 29 0 22 -33 41 -71 41 l-39 0 0 -90z m76 48 c9 -14
-21 -42 -35 -34 -6 4 -11 18 -11 31 0 18 4 22 20 18 11 -3 23 -10 26 -15z m2
-70 c15 -15 -3 -47 -25 -44 -26 4 -31 56 -6 56 11 0 24 -5 31 -12z"/>
<path d="M126 541 c-9 -15 -5 -121 4 -121 6 0 11 7 11 15 1 8 2 21 3 28 0 6 7
13 14 13 6 1 17 2 23 3 5 0 8 5 4 11 -3 5 -12 7 -20 3 -8 -3 -15 0 -15 6 0 6
-1 14 -2 18 -2 3 7 7 19 8 26 2 44 15 22 16 -8 0 -24 2 -37 3 -13 2 -24 0 -26
-3z"/>
<path d="M609 541 c-1 -3 -2 -30 -3 -59 -3 -53 9 -71 42 -66 6 1 17 2 23 3 5
0 8 5 4 10 -3 6 -14 8 -25 6 -16 -3 -20 2 -20 21 0 20 4 24 19 19 11 -3 22 -1
26 5 6 9 -6 14 -31 11 -7 -1 -14 5 -18 14 -5 14 4 19 31 16 6 -1 14 3 18 9 3
5 0 10 -7 11 -7 0 -23 2 -35 3 -13 2 -23 0 -24 -3z"/>
<path d="M860 521 c0 -24 -3 -28 -24 -24 -32 7 -50 -24 -33 -57 9 -17 20 -24
42 -24 l30 0 3 67 c2 42 -1 67 -8 67 -5 0 -10 -13 -10 -29z m-2 -63 c-2 -13
-10 -23 -18 -23 -8 0 -16 10 -18 23 -3 17 2 22 18 22 16 0 21 -5 18 -22z"/>
<path d="M970 543 c-23 -5 -15 -119 8 -125 30 -8 66 7 81 33 28 50 -26 105
-89 92z m71 -46 c4 -39 -20 -70 -47 -60 -18 7 -19 80 -1 86 16 6 47 -10 48
-26z"/>
<path d="M1370 485 c0 -37 4 -65 10 -65 6 0 10 28 10 65 0 37 -4 65 -10 65 -6
0 -10 -28 -10 -65z"/>
<path d="M490 516 c0 -8 -6 -17 -12 -19 -10 -4 -10 -7 0 -15 7 -5 12 -13 11
-18 -4 -23 2 -55 10 -50 5 3 8 19 7 36 -1 16 1 31 6 32 10 4 -2 48 -13 48 -5
0 -9 -6 -9 -14z"/>
<path d="M210 460 c0 -22 5 -40 10 -40 6 0 10 14 10 30 0 20 5 30 15 30 8 0
15 5 15 10 0 6 -11 10 -25 10 -22 0 -25 -4 -25 -40z"/>
<path d="M280 485 c-16 -19 -5 -61 17 -67 46 -11 74 22 53 62 -13 24 -52 27
-70 5z m60 -30 c0 -15 -27 -28 -41 -19 -13 7 -11 28 3 42 13 13 38 -2 38 -23z"/>
<path d="M380 461 c0 -23 5 -41 10 -41 6 0 10 13 10 29 0 17 5 33 11 37 14 8
29 -14 29 -43 0 -13 5 -23 11 -23 6 0 9 16 7 38 -3 35 -5 37 -40 40 l-38 3 0
-40z"/>
<path d="M698 460 c-3 -29 0 -40 10 -40 9 0 12 7 9 19 -6 26 10 51 29 44 11
-4 15 -15 12 -34 -3 -20 0 -29 9 -29 7 0 13 11 13 24 0 43 -10 56 -45 56 -31
0 -33 -2 -37 -40z"/>
<path d="M1090 481 c-5 -11 -10 -24 -10 -30 0 -17 46 -42 64 -35 26 10 19 25
-9 18 -18 -4 -25 -2 -25 9 0 10 9 14 30 12 33 -3 34 -2 20 26 -6 11 -21 19
-35 19 -14 0 -29 -8 -35 -19z m45 -11 c-3 -5 -13 -6 -21 -3 -12 4 -13 8 -3 14
15 9 32 2 24 -11z"/>
<path d="M1190 460 c11 -22 22 -40 25 -40 3 0 14 18 25 40 11 22 16 40 10 40
-6 0 -16 -12 -22 -26 l-12 -25 -13 25 c-8 14 -18 26 -24 26 -5 0 0 -18 11 -40z"/>
<path d="M1271 483 c-5 -10 -11 -21 -13 -24 -1 -4 5 -16 15 -27 19 -21 52 -22
71 -1 8 8 3 9 -20 5 -23 -5 -33 -3 -37 7 -4 11 2 13 23 11 34 -4 47 10 30 31
-17 20 -57 19 -69 -2z m59 -9 c0 -2 -9 -4 -21 -4 -11 0 -18 4 -14 10 5 8 35 3
35 -6z"/>
<path d="M1422 488 c-18 -18 -14 -52 8 -66 28 -17 70 3 70 34 0 36 -53 57 -78
32z m56 -29 c4 -19 -27 -34 -41 -20 -14 14 0 43 20 39 10 -2 19 -10 21 -19z"/>
<path d="M1518 439 c-2 -45 0 -59 11 -59 9 0 11 7 8 21 -4 15 -2 19 9 15 27
-10 54 12 54 44 0 17 -3 31 -7 31 -5 1 -22 3 -40 5 l-31 2 -4 -59z m60 19 c-2
-13 -10 -23 -18 -23 -8 0 -16 10 -18 23 -3 17 2 22 18 22 16 0 21 -5 18 -22z"/>
<path d="M1626 484 c-21 -20 -20 -30 4 -54 24 -24 30 -25 56 -5 18 15 18 15
-10 13 -16 -2 -31 2 -33 9 -3 8 6 10 26 7 26 -4 31 -2 31 14 0 33 -48 43 -74
16z m49 -4 c3 -6 -4 -10 -17 -10 -18 0 -20 2 -8 10 19 12 18 12 25 0z"/>
<path d="M1720 459 c0 -22 5 -39 10 -39 6 0 10 14 10 30 0 20 5 30 15 30 8 0
15 4 15 9 0 5 -11 9 -25 9 -22 0 -25 -5 -25 -39z"/>
<path d="M535 459 c-4 -5 5 -9 19 -9 14 0 26 4 26 8 0 11 -39 12 -45 1z"/>
</g>
</svg>
